# xmcd
#
# Track frame offsets: 
#        150
#        13594
#        27070
#        43616
#        55419
#        76397
#        90029
#        101517
#        121101
#        134328
#        149512
#        165973
#        179504
#        188703
#        198576
#        211458
#        221176
#        232312
#        240981
#        250908
#        263222
#        278060
#        294249
#        307154
#        319098
#        336537
#
# Disc length: 4676 seconds
#
# Revision: 0
# Processed by: cddbd v1.5.2PL0 Copyright (c) Steve Scherf et al.
# Submitted via: ExactAudioCopy v0.95b3
#
DISCID=7e12421a
DTITLE=Elvis  - The King - Cd 2  FLAC
DYEAR=1900
DGENRE=
TTITLE0=In The Ghetto
TTITLE1=Burning Love
TTITLE2=Always On My Mind
TTITLE3=The Wonder Of You
TTITLE4=I Just Can't Help Believin'
TTITLE5=There Goes My Everything
TTITLE6=You Don't Have To Say You Love Me
TTITLE7=An American Trilogy
TTITLE8=Are You Lonesome Tonight ?
TTITLE9=My Boy
TTITLE10=Green Green Grass Of Home
TTITLE11=Can't Help Falling In Love
TTITLE12=Rock A Hula Baby
TTITLE13=Return To Sender
TTITLE14=Don't
TTITLE15=( Marie's The Name ) His Latest Flame
TTITLE16=Good Luck Charm
TTITLE17=Surrender
TTITLE18=She's Not You
TTITLE19=A Mess Of Blues
TTITLE20=It's Now Or Never
TTITLE21=Fever
TTITLE22=Moody Blue
TTITLE23=Way Down
TTITLE24=My Way
TTITLE25=If I Can Dream ( Bonus Track )
EXTD=
EXTT0=
EXTT1=
EXTT2=
EXTT3=
EXTT4=
EXTT5=
EXTT6=
EXTT7=
EXTT8=
EXTT9=
EXTT10=
EXTT11=
EXTT12=
EXTT13=
EXTT14=
EXTT15=
EXTT16=
EXTT17=
EXTT18=
EXTT19=
EXTT20=
EXTT21=
EXTT22=
EXTT23=
EXTT24=
EXTT25=
PLAYORDER=
